<?xml version="1.0" encoding="UTF-8"?>
<svg id="Logo" xmlns="http://www.w3.org/2000/svg" version="1.1" viewBox="0 0 250.8 179">
  <!-- Generator: Adobe Illustrator 29.5.1, SVG Export Plug-In . SVG Version: 2.1.0 Build 141)  -->
  <defs>
    <style>
      .st0 {
        fill: #ffa800;
      }
    </style>
  </defs>
  <g>
    <rect class="st0" x="-978.2" y="1243.5" width="101" height="101"/>
    <rect class="st0" x="-978.2" y="1344.5" width="101" height="101"/>
    <rect class="st0" x="-978.2" y="1445.5" width="101" height="101"/>
    <rect class="st0" x="-978.2" y="1546.5" width="101" height="101"/>
    <rect class="st0" x="-978.2" y="1647.5" width="101" height="101"/>
    <rect class="st0" x="-776.2" y="1243.5" width="101" height="101"/>
    <rect class="st0" x="-776.2" y="1344.5" width="101" height="101"/>
    <rect class="st0" x="-776.2" y="1546.5" width="101" height="101"/>
    <rect class="st0" x="-776.2" y="1647.5" width="101" height="101"/>
    <rect class="st0" x="-675.2" y="1243.5" width="101" height="101"/>
    <rect class="st0" x="-574.2" y="1243.5" width="101" height="101"/>
    <rect x="-574.2" y="1445.5" width="101" height="101"/>
    <rect class="st0" x="-574.2" y="1647.5" width="101" height="101"/>
    <rect class="st0" x="-473.2" y="1243.5" width="101" height="101"/>
    <rect class="st0" x="-473.2" y="1647.5" width="101" height="101"/>
    <rect class="st0" x="-372.2" y="1344.5" width="101" height="101"/>
    <rect class="st0" x="-372.2" y="1445.5" width="101" height="101"/>
    <rect class="st0" x="-372.2" y="1546.5" width="101" height="101"/>
    <rect class="st0" x="-372.2" y="1647.5" width="101" height="101"/>
  </g>
  <g>
    <polygon class="st0" points="0 35.8 0 71.6 0 107.4 0 143.2 0 179 35.9 179 35.9 143.2 35.9 107.4 35.9 71.6 35.9 35.8 35.9 0 0 0 0 35.8"/>
    <polygon class="st0" points="71.7 143.2 71.7 179 107.5 179 107.5 143.2 107.5 107.4 71.7 107.4 71.7 143.2"/>
    <rect x="143.3" y="71.6" width="35.8" height="35.8"/>
    <polygon class="st0" points="179.1 0 143.3 0 107.5 0 71.7 0 71.7 35.8 71.7 71.6 107.5 71.6 107.5 35.8 143.3 35.8 179.1 35.8 214.9 35.8 214.9 0 179.1 0"/>
    <polygon class="st0" points="214.9 35.8 214.9 71.6 214.9 107.4 214.9 143.2 179.1 143.2 143.3 143.2 143.3 179 179.1 179 214.9 179 250.8 179 250.8 143.2 250.8 107.4 250.8 71.6 250.8 35.8 214.9 35.8"/>
  </g>
</svg>