<?xml version="1.0" ?>
<svg xmlns="http://www.w3.org/2000/svg" width="400" height="600">
  <rect x="0" y="0" width="40" height="40" fill="#9b51b4"/>
  <rect x="40" y="0" width="40" height="40" fill="#d4e0ee"/>
  <rect x="80" y="0" width="40" height="40" fill="#368fe9"/>
  <rect x="160" y="0" width="40" height="40" fill="#da5a35"/>
  <rect x="200" y="0" width="40" height="40" fill="#fe4606"/>
  <rect x="360" y="0" width="40" height="40" fill="#368fe9"/>
  <rect x="40" y="40" width="40" height="40" fill="#d2e2d7"/>
  <rect x="80" y="40" width="40" height="40" fill="#01a54f"/>
  <rect x="240" y="40" width="40" height="40" fill="#6d4730"/>
  <rect x="280" y="40" width="40" height="40" fill="#ffa705"/>
  <rect x="320" y="40" width="40" height="40" fill="#fea70a"/>
  <rect x="40" y="80" width="40" height="40" fill="#d2e2d5"/>
  <rect x="80" y="80" width="40" height="40" fill="#00a551"/>
  <rect x="240" y="80" width="40" height="40" fill="#6c4830"/>
  <rect x="280" y="80" width="40" height="40" fill="#ffa80b"/>
  <rect x="320" y="80" width="40" height="40" fill="#fea807"/>
  <rect x="0" y="120" width="40" height="40" fill="#ffd533"/>
  <rect x="40" y="120" width="40" height="40" fill="#dcdcda"/>
  <rect x="160" y="120" width="40" height="40" fill="#e7a3ae"/>
  <rect x="200" y="120" width="40" height="40" fill="#fe99ab"/>
  <rect x="280" y="120" width="40" height="40" fill="#00a54f"/>
  <rect x="320" y="120" width="40" height="40" fill="#00a551"/>
  <rect x="40" y="160" width="40" height="40" fill="#dddddd"/>
  <rect x="120" y="160" width="40" height="40" fill="#00a551"/>
  <rect x="160" y="160" width="40" height="40" fill="#eed66c"/>
  <rect x="200" y="160" width="40" height="40" fill="#ffd533"/>
  <rect x="360" y="160" width="40" height="40" fill="#fe99ab"/>
  <rect x="40" y="200" width="40" height="40" fill="#dddddd"/>
  <rect x="120" y="200" width="40" height="40" fill="#01a451"/>
  <rect x="160" y="200" width="40" height="40" fill="#efd46b"/>
  <rect x="200" y="200" width="40" height="40" fill="#ffd535"/>
  <rect x="360" y="200" width="40" height="40" fill="#ff9aac"/>
  <rect x="0" y="240" width="40" height="40" fill="#fe4606"/>
  <rect x="40" y="240" width="40" height="40" fill="#ead7db"/>
  <rect x="80" y="240" width="40" height="40" fill="#fe99ab"/>
  <rect x="240" y="240" width="40" height="40" fill="#9b51b4"/>
  <rect x="280" y="240" width="40" height="40" fill="#fd4708"/>
  <rect x="320" y="240" width="40" height="40" fill="#fe4606"/>
  <rect x="0" y="280" width="40" height="40" fill="#368fe9"/>
  <rect x="40" y="280" width="40" height="40" fill="#dddddd"/>
  <rect x="120" y="280" width="40" height="40" fill="#ffd533"/>
  <rect x="160" y="280" width="40" height="40" fill="#fffffd"/>
  <rect x="360" y="280" width="40" height="40" fill="#ffd533"/>
  <rect x="40" y="320" width="40" height="40" fill="#dddddd"/>
  <rect x="160" y="320" width="40" height="40" fill="#538eca"/>
  <rect x="200" y="320" width="40" height="40" fill="#368fe9"/>
  <rect x="280" y="320" width="40" height="40" fill="#3391eb"/>
  <rect x="320" y="320" width="40" height="40" fill="#368fe9"/>
  <rect x="40" y="360" width="40" height="40" fill="#dddddd"/>
  <rect x="160" y="360" width="40" height="40" fill="#558ccc"/>
  <rect x="200" y="360" width="40" height="40" fill="#368fe9"/>
  <rect x="280" y="360" width="40" height="40" fill="#3291eb"/>
  <rect x="320" y="360" width="40" height="40" fill="#368fe9"/>
  <rect x="40" y="400" width="40" height="40" fill="#f1d5d1"/>
  <rect x="80" y="400" width="40" height="40" fill="#fe4606"/>
  <rect x="120" y="400" width="40" height="40" fill="#6c4830"/>
  <rect x="240" y="400" width="40" height="40" fill="#9b51b4"/>
  <rect x="40" y="440" width="40" height="40" fill="#dddddd"/>
  <rect x="280" y="440" width="40" height="40" fill="#00a54f"/>
  <rect x="320" y="440" width="40" height="40" fill="#00a551"/>
  <rect x="0" y="480" width="40" height="40" fill="#f8d44a"/>
  <rect x="40" y="480" width="40" height="40" fill="#e2dde1"/>
  <rect x="120" y="480" width="40" height="40" fill="#f79cad"/>
  <rect x="160" y="480" width="40" height="40" fill="#8f6396"/>
  <rect x="200" y="480" width="40" height="40" fill="#9355ab"/>
  <rect x="280" y="480" width="40" height="40" fill="#f7a623"/>
  <rect x="320" y="480" width="40" height="40" fill="#f3a828"/>
  <rect x="0" y="520" width="40" height="40" fill="#ffd533"/>
  <rect x="40" y="520" width="40" height="40" fill="#dcdcda"/>
  <rect x="120" y="520" width="40" height="40" fill="#fe99ab"/>
  <rect x="160" y="520" width="40" height="40" fill="#8f5aa0"/>
  <rect x="200" y="520" width="40" height="40" fill="#9b51b4"/>
  <rect x="280" y="520" width="40" height="40" fill="#ffa80b"/>
  <rect x="320" y="520" width="40" height="40" fill="#fea807"/>
  <rect x="0" y="560" width="40" height="40" fill="#fe4606"/>
  <rect x="40" y="560" width="40" height="40" fill="#dcdcdc"/>
  <rect x="360" y="560" width="40" height="40" fill="#9b51b4"/>
</svg>
